<svg width="1189" height="177" viewBox="0 0 1189 177" fill="none" xmlns="http://www.w3.org/2000/svg">
<g opacity="0.2">
<mask id="mask0" mask-type="alpha" maskUnits="userSpaceOnUse" x="0" y="0" width="1190" height="177">
<rect width="1190" height="176.789" rx="10" fill="#F7F7FA"/>
</mask>
<g mask="url(#mask0)">
<g opacity="0.8">
<g style="mix-blend-mode:multiply" opacity="0.4">
<path fill-rule="evenodd" clip-rule="evenodd" d="M-666.725 208.103L-589.157 166.606C-510.125 125.11 -354.988 42.1163 -198.388 17.4777C-41.7879 -7.16097 113.349 26.5551 269.949 83.613C426.549 141.968 581.686 224.961 738.286 217.18C894.886 208.103 1050.02 109.548 1129.05 58.9744L1206.62 9.69706V407.806C1206.62 407.806 582.174 501.173 269.949 501.173C-42.2758 501.173 -666.725 407.806 -666.725 407.806V208.103Z" fill="url(#paint0_linear)"/>
</g>
<g style="mix-blend-mode:multiply" opacity="0.4">
<path fill-rule="evenodd" clip-rule="evenodd" d="M-557.507 -52.9588L-479.451 -69.5288C-401.394 -86.0989 -245.282 -119.239 -89.1697 -61.2438C66.9427 -3.24869 223.055 145.882 379.167 179.022C535.28 212.162 691.392 129.312 847.505 96.1715C1003.62 63.0314 1159.73 79.6015 1237.79 87.8865L1315.84 96.1715V344.722C1315.84 344.722 691.392 437.917 379.167 437.917C66.9427 437.917 -557.507 344.722 -557.507 344.722V-52.9588Z" fill="url(#paint1_linear)"/>
</g>
<g style="mix-blend-mode:multiply" opacity="0.4">
<path fill-rule="evenodd" clip-rule="evenodd" d="M-1128.05 324.76L-1050 349.586C-971.942 374.411 -815.83 424.063 -659.718 415.787C-503.605 407.512 -347.493 341.31 -191.38 275.108C-35.2681 208.907 120.844 142.705 276.957 126.154C433.069 109.604 589.181 142.705 667.238 159.255L745.294 175.806V473.714C745.294 473.714 120.844 566.909 -191.38 566.909C-503.605 566.909 -1128.05 473.714 -1128.05 473.714V324.76Z" fill="url(#paint2_linear)"/>
</g>
</g>
</g>
</g>
<defs>
<linearGradient id="paint0_linear" x1="67.3061" y1="50.1999" x2="67.8291" y2="372.827" gradientUnits="userSpaceOnUse">
<stop stop-color="#2B7DEB"/>
<stop offset="1" stop-color="#2B7DEB"/>
</linearGradient>
<linearGradient id="paint1_linear" x1="176.525" y1="-49.8462" x2="177.136" y2="299.1" gradientUnits="userSpaceOnUse">
<stop stop-color="#2B7DEB" stop-opacity="0.37"/>
<stop offset="1" stop-color="#2B7DEB"/>
</linearGradient>
<linearGradient id="paint2_linear" x1="-394.023" y1="158.66" x2="-393.595" y2="450.722" gradientUnits="userSpaceOnUse">
<stop stop-color="#2B7DEB"/>
<stop offset="1" stop-color="#2B7DEB"/>
</linearGradient>
</defs>
</svg>
